<svg width="130" height="337" viewBox="0 0 130 337" fill="none" xmlns="http://www.w3.org/2000/svg">
<path d="M11.7987 18.3992C21.1452 7.07135 44.7785 -10.3452 64.5397 10.6113C84.3009 31.5679 57.6411 70.7906 41.841 87.7824C34.0523 92.5024 17.8072 100.526 15.1367 94.8623C11.7987 87.7824 9.79587 72.9146 37.1678 60.1707C54.7481 52.6188 92.7127 44.5949 103.929 72.9146C109.047 85.1864 109.937 113.695 72.551 129.554L25.8185 150.086M25.8185 150.086C8.01559 150.799 -17.576 142.311 22.4804 102.65C35.165 96.5143 65.875 84.1009 87.2384 83.5345C99.4779 86.1304 123.022 98.9687 119.284 129.554C119.729 135.69 111.406 150.935 74.5539 162.83C66.0975 164.717 47.182 168.635 39.1707 169.201L10.4636 173.449L25.8185 150.086ZM25.8185 150.086C37.5002 146.782 65.0705 141.165 81.8976 145.13C102.931 150.086 111.272 145.838 127.962 173.449C130.855 187.609 128.764 216.637 97.2525 219.469C65.7415 222.301 45.4017 216.873 39.1707 213.805V187.609M39.1707 187.609C62.0919 189.733 111.272 188.176 124.624 164.953C131.078 148.434 131.568 114.686 81.8976 111.854C69.8806 112.326 44.2445 113.836 37.8355 116.102L39.1707 166.369C62.5369 168.493 111.673 178.547 121.286 201.769C126.405 215.221 128.096 243.541 93.9145 249.204C81.23 249.676 52.5229 247.93 39.1707 237.169M39.1707 187.609V237.169M39.1707 187.609C53.6355 191.149 85.5026 200.919 97.2525 211.681C111.495 223.481 132.369 252.744 101.926 275.4C92.3567 278.94 66.943 281.772 41.841 264.78M39.1707 237.169L41.841 264.78M39.1707 237.169C55.1933 248.496 87.906 275.967 90.5764 295.224C91.6892 307.024 88.7072 331.615 67.8778 335.579C62.5369 336.523 49.3183 336.429 39.1707 328.5L41.841 264.78" stroke="#84829A" stroke-width="1.33012"/>
</svg>
