<svg width="498" height="367" opacity="0.1" viewBox="0 0 498 367" fill="none" xmlns="http://www.w3.org/2000/svg">
<path d="M173.427 489.933C81.2059 489.933 6.44432 415.067 6.44433 322.713C6.44433 230.359 81.2059 155.493 173.427 155.493C265.648 155.493 340.41 230.359 340.41 322.713C340.41 415.067 265.648 489.933 173.427 489.933Z" stroke="#6246E5" stroke-width="1.33012"/>
<path d="M191.074 496.561C87.8886 496.561 4.23851 412.794 4.23852 309.46C4.23852 206.126 87.8886 122.358 191.074 122.358C294.26 122.358 377.91 206.126 377.91 309.46C377.91 412.794 294.26 496.561 191.074 496.561Z" stroke="#6246E5" stroke-width="1.33012"/>
<path d="M205.412 503.187C92.4805 503.187 0.929521 411.508 0.929526 298.414C0.929531 185.32 92.4805 93.6406 205.412 93.6406C318.344 93.6406 409.895 185.32 409.895 298.414C409.895 411.508 318.344 503.187 205.412 503.187Z" stroke="#6246E5" stroke-width="1.33012"/>
<path d="M226.369 507.605C104.909 507.605 6.44487 409.003 6.44488 287.369C6.44488 165.735 104.909 67.1328 226.369 67.1328C347.829 67.1328 446.293 165.735 446.293 287.369C446.293 409.003 347.829 507.605 226.369 507.605Z" stroke="#6246E5" stroke-width="1.33012"/>
<path d="M246.773 512.024C117.09 512.024 11.9593 406.746 11.9593 276.877C11.9593 147.008 117.09 41.7295 246.773 41.7295C376.456 41.7295 481.587 147.008 481.587 276.877C481.587 406.746 376.456 512.024 246.773 512.024Z" stroke="#6246E5" stroke-width="1.33012"/>
<path d="M269.935 517.546C127.46 517.546 11.9592 401.883 11.9592 259.204C11.9592 116.525 127.46 0.862309 269.935 0.862315C412.41 0.862321 527.911 116.525 527.911 259.204C527.911 401.883 412.41 517.546 269.935 517.546Z" stroke="#6246E5" stroke-width="1.33012"/>
</svg>
