<svg width="22" height="23" viewBox="0 0 22 23" fill="none" xmlns="http://www.w3.org/2000/svg">
<path d="M21.7463 1.70917L12.6017 21.661C12.5252 21.8281 12.3954 21.9652 12.2327 22.0507C12.07 22.1363 11.8836 22.1655 11.7025 22.1338C11.5215 22.1021 11.356 22.0113 11.232 21.8756C11.1081 21.7399 11.0326 21.5669 11.0173 21.3838L10.2442 12.1089L0.969351 11.3358C0.786171 11.3205 0.613199 11.245 0.477487 11.1211C0.341775 10.9971 0.250977 10.8316 0.219293 10.6506C0.187609 10.4695 0.216825 10.2831 0.302373 10.1204C0.387921 9.95769 0.524977 9.82794 0.692104 9.75142L20.6439 0.606834C20.7982 0.536147 20.9703 0.514347 21.1373 0.544362C21.3043 0.574376 21.4581 0.654767 21.5781 0.77474C21.6981 0.894713 21.7785 1.04852 21.8085 1.21551C21.8385 1.3825 21.8167 1.55468 21.746 1.70892L21.7463 1.70917Z" fill="#080809"/>
</svg>
